<?xml version="1.0" standalone="no"?>
<!DOCTYPE svg PUBLIC "-//W3C//DTD SVG 20010904//EN"
 "http://www.w3.org/TR/2001/REC-SVG-20010904/DTD/svg10.dtd">
<svg version="1.0" xmlns="http://www.w3.org/2000/svg"
 width="595.000000pt" height="238.000000pt" viewBox="0 0 595.000000 238.000000"
 preserveAspectRatio="xMidYMid meet">
<metadata>
Created by potrace 1.16, written by Peter Selinger 2001-2019
</metadata>
<g transform="translate(0.000000,238.000000) scale(0.100000,-0.100000)"
fill="#000000" stroke="none">
<path d="M4660 1371 l0 -139 -38 38 c-80 81 -204 78 -288 -6 -80 -79 -82 -220
-5 -308 30 -34 91 -58 150 -58 71 0 106 14 148 58 l33 35 0 -45 c0 -39 3 -46
20 -46 20 0 20 7 20 305 0 298 0 305 -20 305 -19 0 -20 -7 -20 -139z m-91
-102 c155 -87 93 -339 -84 -339 -136 0 -222 168 -145 285 47 71 154 97 229 54z"/>
<path d="M3250 1469 c-108 -21 -167 -126 -121 -213 18 -33 90 -68 201 -97 102
-27 140 -58 140 -114 0 -48 -23 -80 -71 -99 -75 -30 -190 -15 -259 34 -26 18
-28 19 -34 3 -8 -21 10 -36 74 -66 65 -30 189 -29 248 2 51 26 82 72 82 124 0
81 -44 118 -185 157 -107 29 -143 47 -162 83 -21 42 -4 98 40 129 43 31 161
33 226 4 36 -17 44 -18 52 -5 7 11 -2 19 -39 35 -57 26 -131 35 -192 23z"/>
<path d="M510 1455 c0 -12 18 -15 106 -15 l105 0 -3 -226 -3 -226 -33 -29
c-50 -45 -126 -37 -184 18 -25 24 -28 25 -34 8 -5 -13 1 -26 24 -46 59 -53
162 -60 219 -16 48 38 53 67 53 317 l0 230 -125 0 c-104 0 -125 -2 -125 -15z"/>
<path d="M1266 1316 c-89 -33 -142 -121 -134 -226 9 -131 121 -214 255 -189
152 29 217 203 127 341 -45 70 -164 105 -248 74z m165 -49 c69 -46 100 -128
79 -205 -30 -113 -147 -164 -250 -109 -128 67 -115 279 20 330 39 15 118 7
151 -16z"/>
<path d="M1917 1323 c-4 -3 -7 -100 -7 -215 0 -201 1 -208 20 -208 19 0 20 7
20 215 0 172 -3 215 -13 215 -8 0 -17 -3 -20 -7z"/>
<path d="M2360 1116 c0 -209 1 -216 20 -216 19 0 20 7 20 138 0 156 10 190 69
229 26 17 48 23 93 23 52 0 62 -3 96 -34 l37 -34 3 -161 c3 -154 4 -161 24
-161 19 0 20 5 16 164 -3 178 -8 193 -69 238 -59 44 -179 30 -235 -26 l-33
-33 -3 41 c-2 29 -8 42 -20 44 -17 3 -18 -12 -18 -212z"/>
<path d="M3877 1323 c-4 -3 -7 -100 -7 -215 0 -201 1 -208 20 -208 19 0 20 7
20 215 0 173 -3 215 -13 215 -8 0 -17 -3 -20 -7z"/>
<path d="M5107 1323 c-4 -3 -7 -100 -7 -215 0 -197 1 -208 19 -208 17 0 19 11
23 143 3 115 7 148 22 172 25 42 61 66 107 72 30 4 39 10 39 24 0 36 -92 11
-137 -38 l-33 -34 0 45 c0 43 -13 59 -33 39z"/>
</g>
</svg>
